# xmcd
#
# Track frame offsets:
#	150
#	15300
#	34125
#	49200
#	63448
#	77308
#	93571
#	108946
#	122219
#	141264
#	158289
#	171783
#	191348
#	208748
#	227338
#
# Disc length: 3243 seconds
#
# Revision: 1
# Processed by: cddbd v1.5.2PL0 Copyright (c) Steve Scherf et al.
# Submitted via: audiograbber 1.83.01
#
DISCID=b50ca90f
DTITLE=Compilation - PHM-Best of Country 2001
DYEAR=2001
DGENRE=Karaoke
TTITLE0=Garth Brooks - Wild Horses
TTITLE1=Sara Evans - I Could Not Ask For More
TTITLE2=Tim McGraw - Things Change
TTITLE3=John Michael Montgomery - Thats what I Like about You
TTITLE4=Trick Pony - Pour Me
TTITLE5=Sawyer Brown - Lookin for Love
TTITLE6=Brooks and Dunn -  Aint Nothing 'Bout You
TTITLE7=Keith Urban - Where the Blacktop ends
TTITLE8=Lonestar -  I'm Already There
TTITLE9=Faith Hill -  There You'll Be
TTITLE10=Toby Keith - I'm Just Talkin About Tonight
TTITLE11=Mark Wills - Loving Every Minute
TTITLE12=Dixie Chicks  -  Heartbreak Town
TTITLE13=Jo Dee Messina/Tim McGraw -  Bring On the Rain
TTITLE14=Clay Walker - If You Ever Feel Like Loving me Again
EXTD=
EXTT0=
EXTT1=
EXTT2=
EXTT3=
EXTT4=
EXTT5=
EXTT6=
EXTT7=
EXTT8=
EXTT9=
EXTT10=
EXTT11=
EXTT12=
EXTT13=
EXTT14=
PLAYORDER=
